<?xml version="1.0" encoding="UTF-8"?>
<svg xmlns="http://www.w3.org/2000/svg" xmlns:xlink="http://www.w3.org/1999/xlink" width="23px" height="23px" viewBox="0 0 23 23" version="1.1">
<g id="surface1">
<path style=" stroke:none;fill-rule:nonzero;fill:rgb(28.627452%,29.803923%,30.588236%);fill-opacity:1;" d="M 21.71875 12.78125 C 21.71875 18.421875 17.152344 23 11.5 23 C 5.847656 23 1.28125 18.421875 1.28125 12.78125 C 1.28125 12.074219 1.851562 11.5 2.554688 11.5 C 3.261719 11.5 3.828125 12.074219 3.828125 12.78125 C 3.835938 16.929688 7.136719 20.328125 11.285156 20.441406 C 15.433594 20.550781 18.921875 17.347656 19.15625 13.203125 C 19.382812 9.054688 16.269531 5.480469 12.136719 5.140625 L 12.136719 7.03125 C 12.136719 7.269531 12.003906 7.484375 11.792969 7.589844 C 11.363281 7.671875 11.238281 7.628906 11.132812 7.550781 L 6.65625 4.355469 C 6.492188 4.230469 6.386719 4.042969 6.386719 3.828125 C 6.386719 3.628906 6.492188 3.433594 6.65625 3.316406 L 11.132812 0.113281 C 11.324219 -0.0234375 11.585938 -0.0390625 11.792969 0.0820312 C 12.003906 0.179688 12.136719 0.402344 12.136719 0.636719 L 12.136719 2.582031 C 17.527344 2.910156 21.734375 7.375 21.71875 12.78125 "/>
<path style=" stroke:none;fill-rule:nonzero;fill:rgb(28.627452%,29.803923%,30.588236%);fill-opacity:1;" d="M 14.957031 11.132812 L 12.78125 13.316406 L 12.78125 16.613281 C 12.78125 17.316406 12.210938 17.886719 11.5 17.886719 C 10.789062 17.886719 10.21875 17.316406 10.21875 16.613281 L 10.21875 12.78125 C 10.21875 12.667969 10.238281 12.558594 10.277344 12.453125 C 10.386719 12.128906 10.476562 11.988281 10.59375 11.867188 L 13.152344 9.316406 C 13.652344 8.8125 14.464844 8.8125 14.957031 9.316406 C 15.460938 9.816406 15.460938 10.628906 14.957031 11.132812 "/>
</g>
</svg>
