<?xml version="1.0" encoding="UTF-8"?>
<svg xmlns="http://www.w3.org/2000/svg" xmlns:xlink="http://www.w3.org/1999/xlink" width="23px" height="23px" viewBox="0 0 23 23" version="1.1">
<g id="surface1">
<path style=" stroke:none;fill-rule:nonzero;fill:rgb(0%,0%,0%);fill-opacity:1;" d="M 6.390625 17.257812 L 7.765625 17.257812 L 7.765625 18.632812 C 7.765625 19.140625 8.175781 19.550781 8.683594 19.550781 C 9.1875 19.550781 9.601562 19.140625 9.601562 18.632812 L 9.601562 17.257812 L 10.976562 17.257812 C 11.480469 17.257812 11.890625 16.847656 11.890625 16.339844 C 11.890625 15.835938 11.480469 15.421875 10.976562 15.421875 L 9.601562 15.421875 L 9.601562 14.050781 C 9.601562 13.542969 9.1875 13.132812 8.683594 13.132812 C 8.175781 13.132812 7.765625 13.542969 7.765625 14.050781 L 7.765625 15.421875 L 6.390625 15.421875 C 5.882812 15.421875 5.472656 15.835938 5.472656 16.339844 C 5.472656 16.847656 5.882812 17.257812 6.390625 17.257812 Z M 6.390625 17.257812 "/>
<path style=" stroke:none;fill-rule:nonzero;fill:rgb(0%,0%,0%);fill-opacity:1;" d="M 19.941406 0 L 3.058594 0 C 2.554688 0 2.140625 0.410156 2.140625 0.917969 L 2.140625 22.082031 C 2.140625 22.589844 2.550781 23 3.058594 23 L 15.230469 23 C 15.457031 23 15.699219 22.910156 15.878906 22.730469 L 20.589844 18.023438 C 20.757812 17.851562 20.859375 17.617188 20.859375 17.375 L 20.859375 0.917969 C 20.859375 0.410156 20.449219 0 19.941406 0 Z M 16.148438 19.867188 L 16.148438 18.289062 L 17.726562 18.289062 C 16.691406 19.324219 16.953125 19.0625 16.148438 19.867188 Z M 19.023438 16.457031 L 15.230469 16.457031 C 14.726562 16.457031 14.3125 16.867188 14.3125 17.375 L 14.3125 21.164062 L 3.976562 21.164062 L 3.976562 1.835938 L 19.023438 1.835938 Z M 19.023438 16.457031 "/>
<path style=" stroke:none;fill-rule:nonzero;fill:rgb(0%,0%,0%);fill-opacity:1;" d="M 6.390625 11.191406 L 11.132812 11.191406 C 11.640625 11.191406 12.050781 10.78125 12.050781 10.273438 C 12.050781 9.769531 11.640625 9.355469 11.132812 9.355469 L 6.390625 9.355469 C 5.882812 9.355469 5.472656 9.769531 5.472656 10.273438 C 5.472656 10.78125 5.882812 11.191406 6.390625 11.191406 Z M 6.390625 11.191406 "/>
<path style=" stroke:none;fill-rule:nonzero;fill:rgb(0%,0%,0%);fill-opacity:1;" d="M 6.390625 8.375 L 16.609375 8.375 C 17.117188 8.375 17.527344 7.964844 17.527344 7.460938 C 17.527344 6.953125 17.117188 6.542969 16.609375 6.542969 L 6.390625 6.542969 C 5.882812 6.542969 5.472656 6.953125 5.472656 7.460938 C 5.472656 7.964844 5.882812 8.375 6.390625 8.375 Z M 6.390625 8.375 "/>
<path style=" stroke:none;fill-rule:nonzero;fill:rgb(0%,0%,0%);fill-opacity:1;" d="M 6.390625 5.5625 L 16.609375 5.5625 C 17.117188 5.5625 17.527344 5.148438 17.527344 4.644531 C 17.527344 4.136719 17.117188 3.726562 16.609375 3.726562 L 6.390625 3.726562 C 5.882812 3.726562 5.472656 4.136719 5.472656 4.644531 C 5.472656 5.148438 5.882812 5.5625 6.390625 5.5625 Z M 6.390625 5.5625 "/>
</g>
</svg>
