<?xml version="1.0" standalone="no"?>
<!DOCTYPE svg PUBLIC "-//W3C//DTD SVG 20010904//EN"
 "http://www.w3.org/TR/2001/REC-SVG-20010904/DTD/svg10.dtd">
<svg version="1.0" xmlns="http://www.w3.org/2000/svg"
 width="1120.000000pt" height="1120.000000pt" viewBox="0 0 1120.000000 1120.000000"
 preserveAspectRatio="xMidYMid meet">

<g transform="translate(0.000000,1120.000000) scale(0.100000,-0.100000)"
fill="#000000" stroke="none">
<path d="M5430 8895 l0 -55 -60 0 -60 0 0 -50 0 -50 55 0 55 0 0 -40 0 -40 70
0 70 0 0 39 0 40 55 6 55 7 0 44 0 44 -55 0 -55 0 0 55 0 55 -65 0 -65 0 0
-55z"/>
<path d="M3646 8294 c-181 -44 -328 -200 -369 -390 -9 -46 -12 -409 -11 -1595
1 -1643 -1 -1586 51 -1697 29 -61 131 -176 177 -198 24 -12 27 -12 14 -1 -10
8 -16 16 -13 19 3 2 -6 15 -20 28 -14 13 -25 18 -25 11 0 -7 -5 -9 -10 -6 -6
4 -7 11 -4 17 4 6 2 8 -4 5 -14 -9 -60 47 -84 102 -37 88 -41 213 -34 1196 7
1152 6 1059 17 1015 4 -19 9 -469 9 -1000 1 -531 6 -993 11 -1028 14 -96 102
-254 131 -236 6 4 8 2 4 -4 -6 -10 43 -52 62 -52 6 0 12 -4 14 -9 2 -5 10 -11
18 -13 8 -2 19 -8 25 -14 5 -7 21 -15 35 -19 24 -6 24 -5 6 9 -10 9 -23 13
-27 10 -5 -3 -9 1 -9 10 0 8 -5 16 -12 18 -8 3 -8 9 1 24 11 19 11 19 9 -1 -2
-12 2 -19 10 -17 25 5 52 -18 52 -44 0 -23 3 -26 30 -22 17 3 30 1 30 -4 0 -5
19 -8 42 -6 36 3 42 6 44 28 4 46 13 74 28 82 9 5 13 15 10 23 -4 10 0 15 11
15 9 0 14 -4 10 -9 -3 -5 0 -13 6 -17 8 -4 9 -3 5 4 -4 7 -1 12 8 12 9 0 16 5
16 11 0 5 -4 7 -10 4 -5 -3 -10 -2 -10 3 0 6 -10 8 -22 5 -23 -5 -23 -5 1 13
16 12 26 14 29 6 2 -6 9 -9 17 -6 10 4 12 -1 8 -17 -5 -18 -3 -21 14 -17 11 3
28 1 37 -4 12 -7 16 -5 16 6 0 10 -6 13 -15 10 -8 -4 -15 -1 -15 5 0 13 6 14
48 2 20 -6 30 -6 27 0 -7 10 -7 10 58 12 33 0 47 5 47 15 0 10 8 13 25 10 17
-4 29 0 35 11 7 13 9 12 7 -6 0 -12 -5 -19 -11 -16 -5 4 -7 -1 -3 -9 4 -12 0
-15 -16 -11 -18 5 -20 3 -10 -7 9 -10 4 -21 -24 -51 -20 -21 -41 -35 -46 -32
-6 3 -7 1 -3 -5 9 -15 -74 -68 -139 -88 -27 -9 -95 -22 -150 -28 l-100 -12
175 -8 c144 -7 185 -5 226 7 108 32 180 83 232 165 61 94 62 107 57 747 -3
319 -2 598 3 620 l7 40 96 -150 c53 -83 143 -231 201 -330 209 -356 397 -662
454 -736 105 -138 258 -199 504 -202 l135 -2 68 34 c37 19 86 54 110 80 44 47
166 235 229 351 20 36 114 197 209 358 96 160 197 333 224 383 28 50 64 116
82 147 l32 57 1 -557 c0 -367 4 -575 11 -610 17 -82 65 -172 125 -237 107
-116 204 -157 414 -174 74 -7 180 -12 235 -11 88 0 107 3 162 28 69 32 147
106 182 174 49 96 49 87 56 1407 4 682 9 1349 10 1482 4 317 -9 386 -95 512
-21 31 -48 65 -60 76 -12 11 -47 53 -78 93 -122 163 -270 230 -482 219 -257
-14 -394 -95 -543 -320 -152 -229 -812 -1296 -805 -1301 9 -8 174 27 263 55
118 37 166 60 260 127 110 78 174 139 168 161 -9 37 33 84 202 225 234 196
231 194 275 158 41 -33 22 -60 -147 -204 -86 -73 -191 -164 -233 -203 -120
-111 -273 -217 -390 -269 -93 -42 -116 -58 -195 -134 -94 -90 -388 -345 -456
-395 -24 -18 -46 -27 -56 -23 -17 7 -17 13 7 1131 5 231 10 509 10 617 0 192
-1 197 -22 212 -31 22 -70 20 -98 -6 l-23 -22 6 -385 c4 -212 10 -648 14 -968
6 -574 6 -583 -13 -583 -27 0 -350 270 -454 380 -77 81 -101 99 -260 191 -211
123 -304 186 -475 321 -71 57 -159 124 -195 150 -146 104 -385 304 -388 323
-4 26 32 65 59 65 22 0 84 -43 306 -212 113 -87 133 -106 133 -129 0 -23 18
-42 108 -112 197 -155 416 -306 522 -361 120 -62 205 -90 334 -111 119 -19
127 -19 119 3 -4 9 -90 144 -192 299 -102 156 -258 393 -346 528 -141 216
-308 452 -414 583 -43 53 -119 112 -189 147 -115 57 -344 81 -476 49z m855
-1476 c13 -18 27 -34 31 -36 4 -2 8 -12 8 -23 0 -11 27 -44 63 -77 34 -31 89
-85 122 -119 36 -36 115 -97 195 -148 74 -48 204 -139 288 -202 l152 -115 0
-41 c0 -51 28 -100 72 -127 42 -25 124 -27 157 -3 14 9 21 12 18 6 -13 -22 27
-24 47 -3 17 17 21 33 21 91 l1 71 44 32 c142 101 182 128 175 117 -6 -10 -3
-11 14 -1 12 6 19 15 16 20 -3 5 0 12 6 16 8 5 9 3 4 -6 -9 -14 -3 -12 42 15
18 11 32 27 30 35 -1 9 5 14 14 12 9 -1 23 5 30 15 12 15 12 16 -1 9 -8 -4 3
8 25 28 28 25 68 45 134 66 131 43 147 55 197 139 16 27 22 46 16 50 -7 4 -3
28 11 69 18 56 28 70 81 113 33 26 62 47 64 45 6 -6 -25 -62 -91 -166 -34 -52
-98 -158 -142 -235 -206 -353 -544 -902 -583 -946 -25 -27 -67 -60 -100 -76
-51 -25 -67 -28 -162 -28 -98 0 -109 2 -159 30 -31 17 -68 48 -85 72 -17 24
-125 203 -241 398 -115 196 -271 451 -346 568 -127 198 -229 369 -229 382 0
14 41 -18 61 -47z m-664 -2290 c-3 -8 -6 -5 -6 6 -1 11 2 17 5 13 3 -3 4 -12
1 -19z m-107 -38 c0 -5 -7 -7 -15 -4 -8 4 -12 10 -9 15 6 11 24 2 24 -11z
m-24 -25 c15 -13 25 -27 21 -31 -3 -4 -13 -2 -20 4 -8 7 -16 11 -18 9 -2 -1
-3 0 -2 2 1 2 -2 12 -8 22 -13 25 -8 24 27 -6z m52 -4 c11 -7 10 -9 -3 -14 -9
-4 -14 -3 -10 2 3 5 -1 12 -7 14 -7 3 -8 6 -3 6 6 0 16 -3 23 -8z m-278 -16
c7 -8 8 -15 2 -15 -5 0 -15 7 -22 15 -7 8 -8 15 -2 15 5 0 15 -7 22 -15z"/>
<path d="M3390 4536 c0 -2 8 -10 18 -17 15 -13 16 -12 3 4 -13 16 -21 21 -21
13z"/>
<path d="M3618 4363 c7 -3 16 -2 19 1 4 3 -2 6 -13 5 -11 0 -14 -3 -6 -6z"/>
<path d="M3658 4353 c6 -2 18 -2 25 0 6 3 1 5 -13 5 -14 0 -19 -2 -12 -5z"/>
<path d="M6072 3657 c-28 -30 -28 -76 -1 -111 26 -33 88 -37 119 -6 31 31 27
93 -6 119 -36 28 -85 27 -112 -2z"/>
<path d="M5242 3528 l3 -134 -45 25 c-38 22 -58 26 -125 25 -67 0 -89 -4 -131
-27 -108 -55 -159 -151 -159 -297 0 -100 23 -161 83 -223 54 -56 105 -79 188
-85 73 -5 122 10 182 54 22 16 22 16 22 -15 l0 -31 60 0 60 0 -2 418 -3 417
-68 3 -69 3 4 -133z m-72 -216 c51 -25 73 -71 78 -161 3 -58 -1 -88 -15 -125
-25 -68 -58 -89 -142 -94 -67 -4 -69 -3 -109 32 -108 98 -91 290 30 349 43 22
114 21 158 -1z"/>
<path d="M3273 3634 c-10 -4 -13 -96 -13 -411 l0 -406 38 7 c20 3 49 6 65 6
l27 0 0 268 0 267 105 -244 c118 -276 128 -294 157 -289 17 2 33 30 75 133 30
72 81 193 113 270 l59 140 3 -275 3 -275 63 -3 62 -3 0 395 c0 217 -3 401 -6
410 -8 21 -136 23 -152 3 -6 -7 -49 -107 -95 -223 -47 -115 -94 -231 -106
-259 l-22 -49 -83 189 c-45 105 -100 226 -122 270 l-39 80 -60 2 c-33 1 -66
-1 -72 -3z"/>
<path d="M5450 3581 c0 -59 0 -59 33 -64 17 -3 62 -2 100 1 l67 5 0 -352 0
-352 68 3 67 3 0 345 0 345 103 3 102 3 0 59 0 60 -270 0 -270 0 0 -59z"/>
<path d="M4350 3437 c-90 -25 -154 -79 -192 -162 -33 -73 -33 -217 1 -293 32
-71 106 -137 179 -158 112 -33 242 -6 320 67 l31 30 -37 38 c-40 42 -34 42
-99 -5 -91 -65 -245 -17 -282 87 l-10 29 224 0 c258 0 242 -7 230 103 -14 120
-70 204 -166 246 -60 27 -142 34 -199 18z m156 -123 c37 -18 71 -65 80 -113
l7 -31 -168 0 -167 0 7 28 c10 44 50 97 86 115 43 21 111 22 155 1z"/>
<path d="M6070 3135 l0 -315 65 0 65 0 0 315 0 315 -65 0 -65 0 0 -315z"/>
<path d="M6523 3437 c-17 -7 -35 -15 -39 -19 -12 -13 -24 -9 -24 7 0 12 -14
15 -65 15 l-65 0 0 -310 0 -310 71 0 71 0 -4 219 c-3 210 -2 221 18 248 48 65
162 52 199 -22 17 -35 19 -65 21 -240 l3 -200 60 -3 61 -3 0 206 c0 229 7 262
59 289 38 20 74 20 111 1 51 -26 55 -43 60 -275 l5 -215 63 -3 62 -3 0 218 c0
228 -5 268 -43 324 -63 94 -226 116 -323 43 l-31 -23 -34 24 c-65 43 -167 57
-236 32z"/>
<path d="M7497 3436 c-96 -27 -182 -114 -208 -209 -17 -65 -7 -193 20 -247 29
-58 85 -116 136 -143 55 -28 195 -36 261 -13 79 27 167 103 132 115 -7 2 -25
17 -40 33 l-27 29 -45 -35 c-54 -41 -109 -52 -177 -36 -57 14 -110 59 -127
109 l-11 31 229 0 228 0 7 39 c9 54 -10 145 -41 198 -62 107 -213 164 -337
129z m181 -133 c30 -22 72 -89 72 -115 0 -16 -15 -18 -171 -18 l-171 0 7 28
c9 38 55 94 96 115 44 23 129 19 167 -10z"/>
</g>
</svg>
